<svg width="391" height="415" viewBox="0 0 391 415" fill="none" xmlns="http://www.w3.org/2000/svg">
<g opacity="0.1">
<path d="M373.402 125.712C373.126 145.561 370.432 187.988 354.673 234.261C326.717 316.451 272.459 371.053 193.322 396.611C114.545 371.159 60.3938 316.937 32.3319 235.318C16.339 188.833 13.5816 145.752 13.2422 125.712C46.628 112.584 59.7575 84.0884 63.1936 63.2452C75.4111 58.4677 89.5587 54.1976 105.488 50.5616C162.948 37.413 223.717 37.413 281.198 50.5616C297.085 54.1976 311.275 58.4677 323.45 63.2452C326.886 84.0673 340.016 112.584 373.423 125.712H373.402Z" fill="#D4AE06"/>
<path style="mix-blend-mode:screen" opacity="0.63" d="M193.32 414.853V23.2705C224.118 23.2705 254.916 26.7162 285.078 33.6076C303.892 37.92 323.088 43.6698 339.929 51.3222C339.929 51.3222 339.06 100.873 390.708 112.88C390.708 112.88 404.495 350.801 193.32 414.832V414.853Z" fill="#FFFAE6"/>
</g>
<path d="M350.362 135.305C350.121 152.616 347.772 189.617 334.028 229.973C309.647 301.651 262.329 349.271 193.312 371.56C124.609 349.363 77.3833 302.075 52.9101 230.895C38.9625 190.354 36.5577 152.782 36.2617 135.305C65.3779 123.856 76.8283 99.005 79.8251 80.8273C90.48 76.6608 102.818 72.9368 116.711 69.7658C166.822 58.2988 219.82 58.2988 269.95 69.7658C283.805 72.9368 296.18 76.6608 306.798 80.8273C309.795 98.9866 321.246 123.856 350.38 135.305H350.362Z" fill="#04346E"/>
<g clip-path="url(#clip0_3624_3024)">
<path d="M192.102 234.02C162.175 265.126 131.06 299.307 83.8703 298.947C34.9256 298.576 0.225154 260.22 0.584801 207.373C0.922651 158.834 38.4894 116.726 89.7664 117.108C132.88 117.435 164.682 153.927 192.44 183.638C222.367 152.521 253.482 118.351 300.672 118.711C350.194 119.081 384.306 157.438 383.947 210.284C383.62 258.824 346.042 300.942 294.765 300.55C251.651 300.223 219.85 263.731 192.091 234.02H192.102ZM168.965 208.649C146.394 186.353 122.723 154.222 88.9272 153.971C59.7958 153.753 37.4868 178.775 37.2906 207.657C37.0726 238.992 57.8995 261.888 86.4424 262.106C119.65 262.357 146.656 232.45 168.965 208.66V208.649ZM347.252 210.001C347.47 178.666 326.643 155.77 298.1 155.552C264.893 155.301 237.886 185.208 215.577 208.998C238.148 231.294 261.819 263.425 295.615 263.676C324.747 263.894 347.056 238.872 347.252 209.99V210.001Z" fill="#005DE1"/>
<path d="M0.584954 207.373C0.54136 213.065 0.988194 218.56 1.74018 223.891L19.3084 235.863L39.2198 223.891C37.9338 218.822 37.2581 213.381 37.2907 207.657C37.4869 178.775 59.7959 153.753 88.9273 153.971C93.8752 154.004 98.5833 154.799 103.128 156.064L91.2705 136.548L103.128 118.471C98.7904 117.664 94.3547 117.141 89.7665 117.108C38.4896 116.726 0.922804 158.834 0.584954 207.373Z" fill="#FCC84F"/>
<path d="M383.958 210.284C383.958 209.521 383.893 208.801 383.882 208.038L364.504 220.326L347.187 208.038C347.198 208.692 347.263 209.336 347.252 210.001C347.056 238.882 324.747 263.905 295.616 263.687C288.335 263.632 281.557 262.029 275.127 259.435L261.188 274.491L275.127 297.747C281.426 299.448 287.943 300.495 294.787 300.549C346.053 300.942 383.631 258.824 383.969 210.284H383.958Z" fill="#FCC84F"/>
<path d="M215.577 209.009C227.794 195.969 241.439 181.119 256.74 170.38L271.039 143.798L256.544 129.417C231.947 141.89 211.926 163.391 192.44 183.638L168.965 208.649C152.65 226.05 133.806 246.679 111.879 256.426L124.423 269.76L111.879 294.782C144.193 284.839 168.529 258.519 192.102 234.02L215.577 209.009Z" fill="#FCC84F"/>
<path d="M77.0518 217.585H72.4112V204.495H77.0902C78.407 204.495 79.5405 204.757 80.4908 205.281C81.4411 205.801 82.1719 206.549 82.6832 207.524C83.1989 208.5 83.4567 209.668 83.4567 211.027C83.4567 212.391 83.1989 213.563 82.6832 214.543C82.1719 215.523 81.4368 216.275 80.478 216.799C79.5234 217.323 78.3814 217.585 77.0518 217.585ZM75.179 215.214H76.9368C77.755 215.214 78.4432 215.069 79.0014 214.779C79.5639 214.485 79.9858 214.031 80.267 213.418C80.5526 212.8 80.6953 212.003 80.6953 211.027C80.6953 210.06 80.5526 209.269 80.267 208.656C79.9858 208.042 79.5661 207.59 79.0078 207.301C78.4496 207.011 77.7614 206.866 76.9432 206.866H75.179V215.214ZM85.5069 217.585V204.495H94.3279V206.776H88.2747V209.896H93.8741V212.178H88.2747V215.303H94.3535V217.585H85.5069ZM98.8935 204.495L102.058 214.441H102.179L105.349 204.495H108.418L103.905 217.585H100.338L95.8189 204.495H98.8935Z" fill="white"/>
<path d="M292.961 211.04C292.961 212.468 292.69 213.682 292.149 214.683C291.612 215.685 290.879 216.45 289.95 216.978C289.025 217.502 287.985 217.764 286.831 217.764C285.667 217.764 284.623 217.5 283.699 216.972C282.774 216.443 282.043 215.678 281.506 214.677C280.969 213.676 280.701 212.463 280.701 211.04C280.701 209.612 280.969 208.398 281.506 207.397C282.043 206.395 282.774 205.632 283.699 205.108C284.623 204.58 285.667 204.316 286.831 204.316C287.985 204.316 289.025 204.58 289.95 205.108C290.879 205.632 291.612 206.395 292.149 207.397C292.69 208.398 292.961 209.612 292.961 211.04ZM290.154 211.04C290.154 210.115 290.016 209.335 289.739 208.701C289.466 208.066 289.081 207.584 288.582 207.256C288.083 206.928 287.5 206.764 286.831 206.764C286.162 206.764 285.578 206.928 285.079 207.256C284.581 207.584 284.193 208.066 283.916 208.701C283.643 209.335 283.507 210.115 283.507 211.04C283.507 211.965 283.643 212.745 283.916 213.379C284.193 214.014 284.581 214.496 285.079 214.824C285.578 215.152 286.162 215.316 286.831 215.316C287.5 215.316 288.083 215.152 288.582 214.824C289.081 214.496 289.466 214.014 289.739 213.379C290.016 212.745 290.154 211.965 290.154 211.04ZM295.011 217.585V204.495H300.176C301.169 204.495 302.014 204.684 302.713 205.063C303.412 205.438 303.945 205.96 304.311 206.629C304.682 207.294 304.867 208.061 304.867 208.931C304.867 209.8 304.68 210.567 304.305 211.232C303.93 211.897 303.387 212.414 302.675 212.785C301.968 213.156 301.111 213.341 300.105 213.341H296.813V211.123H299.658C300.191 211.123 300.629 211.031 300.975 210.848C301.324 210.661 301.584 210.403 301.754 210.075C301.929 209.742 302.017 209.361 302.017 208.931C302.017 208.496 301.929 208.117 301.754 207.793C301.584 207.465 301.324 207.211 300.975 207.032C300.625 206.849 300.182 206.757 299.645 206.757H297.779V217.585H295.011ZM313.767 208.259C313.716 207.744 313.496 207.343 313.108 207.058C312.721 206.772 312.194 206.629 311.529 206.629C311.078 206.629 310.696 206.693 310.385 206.821C310.074 206.945 309.836 207.117 309.669 207.339C309.507 207.561 309.426 207.812 309.426 208.093C309.418 208.328 309.467 208.532 309.574 208.707C309.684 208.882 309.836 209.033 310.027 209.161C310.219 209.284 310.441 209.393 310.692 209.487C310.944 209.576 311.212 209.653 311.498 209.717L312.674 209.998C313.245 210.126 313.769 210.296 314.246 210.509C314.723 210.723 315.137 210.985 315.486 211.296C315.836 211.607 316.106 211.973 316.298 212.395C316.494 212.817 316.594 213.301 316.598 213.846C316.594 214.647 316.39 215.342 315.985 215.93C315.584 216.514 315.005 216.968 314.246 217.291C313.492 217.611 312.582 217.771 311.517 217.771C310.46 217.771 309.539 217.609 308.755 217.285C307.975 216.961 307.366 216.482 306.927 215.847C306.493 215.208 306.265 214.417 306.243 213.475H308.922C308.951 213.914 309.077 214.281 309.299 214.575C309.525 214.865 309.825 215.084 310.2 215.233C310.579 215.378 311.007 215.451 311.485 215.451C311.953 215.451 312.36 215.382 312.706 215.246C313.055 215.11 313.326 214.92 313.517 214.677C313.709 214.434 313.805 214.155 313.805 213.84C313.805 213.546 313.718 213.299 313.543 213.098C313.373 212.898 313.121 212.727 312.789 212.587C312.461 212.446 312.058 212.318 311.581 212.203L310.155 211.845C309.051 211.577 308.18 211.157 307.541 210.586C306.902 210.015 306.584 209.246 306.588 208.279C306.584 207.486 306.795 206.794 307.221 206.201C307.652 205.609 308.242 205.147 308.992 204.814C309.742 204.482 310.594 204.316 311.549 204.316C312.52 204.316 313.368 204.482 314.093 204.814C314.821 205.147 315.388 205.609 315.793 206.201C316.198 206.794 316.407 207.48 316.419 208.259H313.767Z" fill="white"/>
</g>
<g clip-path="url(#clip1_3624_3024)">
<path d="M250.271 180.187C235.095 176.657 235.35 162.091 235.35 162.091C230.402 159.841 224.761 158.151 219.233 156.883C201.508 152.825 183.034 152.825 165.303 156.883C159.775 158.151 154.134 159.841 149.185 162.091C149.185 162.091 149.441 176.657 134.265 180.187C134.265 180.187 130.22 250.124 192.271 268.96C254.322 250.131 250.277 180.187 250.277 180.187H250.271Z" fill="url(#paint0_linear_3624_3024)"/>
<path d="M245.188 183.953C245.107 189.789 244.315 202.261 239.685 215.865C231.47 240.026 215.527 256.078 192.274 263.592C169.126 256.109 153.214 240.169 144.969 216.175C140.269 202.51 139.459 189.845 139.359 183.953C149.169 180.094 153.027 171.717 154.037 165.59C157.627 164.185 161.784 162.93 166.465 161.861C183.349 157.996 201.205 157.996 218.095 161.861C222.763 162.93 226.933 164.185 230.51 165.59C231.52 171.711 235.378 180.094 245.194 183.953H245.188Z" fill="url(#paint1_linear_3624_3024)"/>
<path d="M192.459 175.415C186.538 175.415 181.727 180.212 181.727 186.116V196.83H184.618V186.116C184.618 181.803 188.14 178.298 192.459 178.298C196.778 178.298 200.3 181.809 200.3 186.116V196.83H203.191V186.116C203.191 180.212 198.38 175.415 192.459 175.415Z" fill="url(#paint2_linear_3624_3024)"/>
<path d="M203.672 191.349H180.861C179.171 191.349 177.801 192.715 177.801 194.4V209.886C177.801 211.572 179.171 212.938 180.861 212.938H203.672C205.362 212.938 206.732 211.572 206.732 209.886V194.4C206.732 192.715 205.362 191.349 203.672 191.349Z" fill="url(#paint3_linear_3624_3024)"/>
<path d="M195.307 200.726C195.307 198.837 193.574 197.352 191.611 197.768C190.458 198.011 189.529 198.943 189.299 200.092C189.018 201.478 189.679 202.734 190.764 203.349C191.025 203.498 191.187 203.771 191.187 204.07V207.432C191.187 208.028 191.673 208.513 192.272 208.513C192.87 208.513 193.356 208.028 193.356 207.432V204.07C193.356 203.765 193.525 203.492 193.786 203.343C194.696 202.821 195.313 201.845 195.313 200.726H195.307Z" fill="url(#paint4_linear_3624_3024)"/>
<path style="mix-blend-mode:screen" opacity="0.63" d="M192.273 268.954V153.838C201.323 153.838 210.373 154.851 219.235 156.877C224.764 158.145 230.404 159.835 235.353 162.084C235.353 162.084 235.097 176.651 250.273 180.181C250.273 180.181 254.325 250.125 192.273 268.948V268.954Z" fill="url(#paint5_linear_3624_3024)"/>
<path d="M192.274 270.663C192.105 270.663 191.937 270.638 191.775 270.589C159.029 260.652 144.663 236.54 138.381 218.058C131.606 198.134 132.516 180.815 132.56 180.088C132.603 179.336 133.139 178.696 133.881 178.528C147.48 175.365 147.487 162.656 147.48 162.116C147.474 161.438 147.867 160.817 148.484 160.537C153.046 158.461 158.581 156.672 164.925 155.217C182.813 151.122 201.728 151.122 219.616 155.217C225.967 156.672 231.501 158.461 236.057 160.537C236.674 160.817 237.067 161.438 237.054 162.116C237.048 162.65 237.054 175.359 250.654 178.522C251.389 178.696 251.925 179.33 251.975 180.082C252.019 180.809 252.929 198.128 246.154 218.052C239.872 236.534 225.512 260.646 192.76 270.583C192.598 270.632 192.43 270.657 192.261 270.657L192.274 270.663ZM135.938 181.511C135.863 185.799 136.075 200.713 141.659 217.064C150.379 242.611 167.406 259.465 192.274 267.171C217.142 259.471 234.169 242.618 242.888 217.064C248.466 200.713 248.678 185.799 248.603 181.511C236.026 177.913 234.019 166.845 233.701 163.222C229.532 161.42 224.54 159.847 218.849 158.542C201.46 154.559 183.074 154.559 165.686 158.542C159.995 159.847 155.003 161.42 150.834 163.222C150.516 166.851 148.509 177.913 135.932 181.511H135.938Z" fill="url(#paint6_linear_3624_3024)"/>
<path d="M192.274 270.663C192.105 270.663 191.937 270.638 191.775 270.589C159.029 260.652 144.663 236.54 138.381 218.058C131.606 198.134 132.516 180.815 132.56 180.088C132.603 179.336 133.139 178.696 133.881 178.528C147.48 175.365 147.487 162.656 147.48 162.116C147.474 161.438 147.867 160.817 148.484 160.537C153.046 158.461 158.581 156.672 164.925 155.217C182.813 151.122 201.728 151.122 219.616 155.217C225.967 156.672 231.501 158.461 236.057 160.537C236.674 160.817 237.067 161.438 237.054 162.116C237.048 162.65 237.054 175.359 250.654 178.522C251.389 178.696 251.925 179.33 251.975 180.082C252.019 180.809 252.929 198.128 246.154 218.052C239.872 236.534 225.512 260.646 192.76 270.583C192.598 270.632 192.43 270.657 192.261 270.657L192.274 270.663ZM135.938 181.511C135.863 185.799 136.075 200.713 141.659 217.064C150.379 242.611 167.406 259.465 192.274 267.171C217.142 259.471 234.169 242.618 242.888 217.064C248.466 200.713 248.678 185.799 248.603 181.511C236.026 177.913 234.019 166.845 233.701 163.222C229.532 161.42 224.54 159.847 218.849 158.542C201.46 154.559 183.074 154.559 165.686 158.542C159.995 159.847 155.003 161.42 150.834 163.222C150.516 166.851 148.509 177.913 135.932 181.511H135.938Z" fill="url(#paint7_linear_3624_3024)"/>
<path d="M181.872 228.393C181.821 227.877 181.602 227.477 181.214 227.191C180.826 226.906 180.3 226.763 179.635 226.763C179.183 226.763 178.802 226.827 178.491 226.955C178.18 227.078 177.941 227.251 177.775 227.472C177.613 227.694 177.532 227.945 177.532 228.227C177.523 228.461 177.572 228.665 177.679 228.84C177.79 229.015 177.941 229.166 178.133 229.294C178.325 229.418 178.546 229.526 178.798 229.62C179.049 229.71 179.317 229.786 179.603 229.85L180.779 230.131C181.35 230.259 181.874 230.43 182.352 230.643C182.829 230.856 183.242 231.118 183.592 231.429C183.941 231.74 184.212 232.107 184.403 232.528C184.599 232.95 184.7 233.434 184.704 233.979C184.7 234.781 184.495 235.475 184.09 236.063C183.69 236.647 183.11 237.101 182.352 237.425C181.597 237.744 180.688 237.904 179.622 237.904C178.565 237.904 177.645 237.742 176.861 237.418C176.081 237.094 175.472 236.615 175.033 235.98C174.598 235.341 174.37 234.55 174.349 233.609H177.027C177.057 234.048 177.183 234.414 177.404 234.708C177.63 234.998 177.93 235.217 178.305 235.366C178.685 235.511 179.113 235.584 179.59 235.584C180.059 235.584 180.466 235.516 180.811 235.379C181.161 235.243 181.431 235.053 181.623 234.81C181.815 234.567 181.911 234.288 181.911 233.973C181.911 233.679 181.823 233.432 181.648 233.232C181.478 233.031 181.227 232.861 180.894 232.72C180.566 232.58 180.163 232.452 179.686 232.337L178.261 231.979C177.157 231.71 176.286 231.29 175.646 230.719C175.007 230.148 174.69 229.379 174.694 228.412C174.69 227.619 174.901 226.927 175.327 226.335C175.757 225.742 176.347 225.28 177.097 224.947C177.847 224.615 178.7 224.449 179.654 224.449C180.626 224.449 181.474 224.615 182.198 224.947C182.927 225.28 183.494 225.742 183.898 226.335C184.303 226.927 184.512 227.613 184.525 228.393H181.872ZM186.566 237.719V224.628H195.387V226.91H189.333V230.029H194.933V232.311H189.333V235.437H195.412V237.719H186.566ZM209.137 229.211H206.338C206.287 228.849 206.182 228.527 206.025 228.246C205.867 227.96 205.664 227.717 205.417 227.517C205.17 227.317 204.885 227.163 204.561 227.057C204.241 226.95 203.894 226.897 203.519 226.897C202.841 226.897 202.251 227.065 201.748 227.402C201.245 227.734 200.855 228.22 200.578 228.859C200.301 229.494 200.163 230.266 200.163 231.173C200.163 232.107 200.301 232.891 200.578 233.526C200.86 234.161 201.252 234.64 201.755 234.964C202.257 235.288 202.839 235.45 203.5 235.45C203.87 235.45 204.213 235.401 204.529 235.303C204.848 235.205 205.132 235.062 205.379 234.874C205.626 234.683 205.831 234.45 205.993 234.178C206.159 233.905 206.274 233.594 206.338 233.244L209.137 233.257C209.065 233.858 208.884 234.438 208.594 234.996C208.309 235.55 207.923 236.046 207.437 236.485C206.956 236.92 206.38 237.265 205.711 237.521C205.047 237.772 204.294 237.898 203.455 237.898C202.287 237.898 201.243 237.634 200.323 237.105C199.407 236.577 198.682 235.812 198.15 234.81C197.621 233.809 197.357 232.597 197.357 231.173C197.357 229.746 197.625 228.531 198.162 227.53C198.699 226.528 199.428 225.766 200.348 225.241C201.269 224.713 202.304 224.449 203.455 224.449C204.213 224.449 204.917 224.555 205.564 224.768C206.216 224.982 206.794 225.293 207.297 225.702C207.799 226.107 208.208 226.603 208.524 227.191C208.843 227.779 209.048 228.452 209.137 229.211Z" fill="white"/>
</g>
<g clip-path="url(#clip2_3624_3024)">
<path d="M231.706 96.1152C253.38 74.2706 253.38 38.8535 231.706 17.0089C210.032 -4.83576 174.891 -4.83576 153.217 17.0088C131.543 38.8535 131.543 74.2706 153.217 96.1152C174.891 117.96 210.032 117.96 231.706 96.1152Z" fill="#E3A820"/>
<path d="M192.461 104.302C218.622 104.302 239.829 82.9278 239.829 56.5616C239.829 30.1953 218.622 8.82129 192.461 8.82129C166.301 8.82129 145.094 30.1953 145.094 56.5616C145.094 82.9278 166.301 104.302 192.461 104.302Z" fill="#FCC84F"/>
<path d="M192.463 105.548C179.48 105.548 167.275 100.452 158.095 91.1998C148.915 81.9476 143.859 69.6463 143.859 56.5616C143.859 43.4769 148.915 31.1756 158.095 21.9234C167.275 12.6713 179.48 7.57568 192.463 7.57568C205.445 7.57568 217.651 12.6713 226.831 21.9234C236.011 31.1756 241.066 43.4769 241.066 56.5616C241.066 69.6463 236.011 81.9476 226.831 91.1998C217.651 100.452 205.445 105.548 192.463 105.548ZM192.463 10.0677C167.027 10.0677 146.332 30.9244 146.332 56.5616C146.332 82.1988 167.026 103.056 192.463 103.056C217.9 103.056 238.594 82.1988 238.594 56.5616C238.594 30.9244 217.9 10.0677 192.463 10.0677Z" fill="white"/>
<path d="M212.879 77.1421C224.157 65.776 224.157 47.348 212.879 35.9819C201.602 24.6159 183.318 24.6159 172.041 35.9819C160.763 47.348 160.763 65.776 172.041 77.1421C183.318 88.5082 201.602 88.5081 212.879 77.1421Z" fill="#CF9A13"/>
<path d="M192.458 86.912C175.853 86.912 162.344 73.2967 162.344 56.561C162.344 39.8252 175.853 26.21 192.458 26.21C209.063 26.21 222.572 39.8252 222.572 56.561C222.572 73.2967 209.063 86.912 192.458 86.912ZM192.458 28.7027C177.217 28.7027 164.817 41.1999 164.817 56.561C164.817 71.9221 177.217 84.4192 192.458 84.4192C207.699 84.4192 220.099 71.9221 220.099 56.561C220.099 41.1999 207.699 28.7027 192.458 28.7027Z" fill="white"/>
<path d="M200.374 64.5347C204.743 60.1313 204.743 52.9918 200.374 48.5883C196.004 44.1848 188.921 44.1848 184.552 48.5883C180.182 52.9918 180.182 60.1313 184.552 64.5347C188.921 68.9382 196.004 68.9382 200.374 64.5347Z" fill="#08D01F"/>
<path d="M192.464 69.084C185.612 69.084 180.039 63.4669 180.039 56.5618C180.039 49.6566 185.612 44.0396 192.464 44.0396C199.315 44.0396 204.888 49.6574 204.888 56.5618C204.888 63.4662 199.315 69.084 192.464 69.084ZM192.464 46.5323C186.976 46.5323 182.512 51.032 182.512 56.5618C182.512 62.0915 186.976 66.5912 192.464 66.5912C197.951 66.5912 202.415 62.0923 202.415 56.5618C202.415 51.0313 197.951 46.5323 192.464 46.5323Z" fill="url(#paint8_linear_3624_3024)"/>
<path d="M199.11 48.9448L200.234 49.9985L239.822 7.0767L238.698 6.02293L199.11 48.9448Z" fill="#010101"/>
<path d="M199.778 46.2819C200.378 45.6314 203.419 48.4809 202.82 49.1314L192.248 58.1566C191.857 58.4899 191.317 57.9843 191.619 57.5668L199.778 46.2819Z" fill="black"/>
<path d="M239.794 7.10303L245.342 7.45295L238.031 15.3806C235.636 17.9781 232.211 19.3558 228.699 19.1341L239.794 7.10303Z" fill="#91B3FA"/>
<path d="M238.668 6.04954L237.916 0.498535L230.606 8.42615C228.21 11.0237 227.097 14.5669 227.573 18.0806L238.668 6.04954Z" fill="#91B3FA"/>
</g>
<defs>
<linearGradient id="paint0_linear_3624_3024" x1="192.271" y1="156.995" x2="192.271" y2="254.257" gradientUnits="userSpaceOnUse">
<stop stop-color="#49D5FF"/>
<stop offset="1" stop-color="#00BBFF"/>
</linearGradient>
<linearGradient id="paint1_linear_3624_3024" x1="148.048" y1="211.278" x2="250.037" y2="211.278" gradientUnits="userSpaceOnUse">
<stop stop-color="#3945BA"/>
<stop offset="1" stop-color="#43A6FF"/>
</linearGradient>
<linearGradient id="paint2_linear_3624_3024" x1="181.727" y1="186.122" x2="203.198" y2="186.122" gradientUnits="userSpaceOnUse">
<stop stop-color="white"/>
<stop offset="1" stop-color="#DEE3FC"/>
</linearGradient>
<linearGradient id="paint3_linear_3624_3024" x1="177.801" y1="202.143" x2="206.738" y2="202.143" gradientUnits="userSpaceOnUse">
<stop stop-color="white"/>
<stop offset="1" stop-color="#DEE3FC"/>
</linearGradient>
<linearGradient id="paint4_linear_3624_3024" x1="192.272" y1="208.755" x2="192.272" y2="197.395" gradientUnits="userSpaceOnUse">
<stop stop-color="#3945BA"/>
<stop offset="1" stop-color="#43A6FF"/>
</linearGradient>
<linearGradient id="paint5_linear_3624_3024" x1="221.298" y1="265.748" x2="221.298" y2="167.137" gradientUnits="userSpaceOnUse">
<stop stop-color="#1E68BD"/>
<stop offset="1" stop-color="#1AD4FF" stop-opacity="0.2"/>
</linearGradient>
<linearGradient id="paint6_linear_3624_3024" x1="152.379" y1="156.864" x2="232.823" y2="244.982" gradientUnits="userSpaceOnUse">
<stop stop-color="white"/>
<stop offset="1" stop-color="#DEE3FC"/>
</linearGradient>
<linearGradient id="paint7_linear_3624_3024" x1="152.379" y1="156.864" x2="232.823" y2="244.982" gradientUnits="userSpaceOnUse">
<stop stop-color="white"/>
<stop offset="1" stop-color="#DEE3FC"/>
</linearGradient>
<linearGradient id="paint8_linear_3624_3024" x1="180.039" y1="0.498377" x2="204.888" y2="0.498377" gradientUnits="userSpaceOnUse">
<stop stop-color="#DAE3FE"/>
<stop offset="1" stop-color="#E9EFFD"/>
</linearGradient>
<clipPath id="clip0_3624_3024">
<rect width="383.373" height="183.442" fill="white" transform="translate(0.585938 117.108)"/>
</clipPath>
<clipPath id="clip1_3624_3024">
<rect width="119.546" height="118.516" fill="white" transform="translate(132.5 152.147)"/>
</clipPath>
<clipPath id="clip2_3624_3024">
<rect width="111" height="112" fill="white" transform="translate(136.961 0.498535)"/>
</clipPath>
</defs>
</svg>
